<?xml version="1.0" encoding="utf-8"?>
<!-- Generator: Adobe Illustrator 24.1.1, SVG Export Plug-In . SVG Version: 6.00 Build 0)  -->
<svg width="24px" height="24px" version="1.1" id="Capa_1" xmlns="http://www.w3.org/2000/svg" xmlns:xlink="http://www.w3.org/1999/xlink" x="0px" y="0px"
	 viewBox="0 0 489.4 489.4" style="enable-background:new 0 0 489.4 489.4;" xml:space="preserve">
<style type="text/css">
	.st0{fill:#00FF00;}
</style>
<g>
	<path class="st0" d="M244.7,389.5c18.7,0,34.3-14.4,35.9-33L305,65.5c1.4-16.9-4.3-33.6-15.8-46C277.8,7.1,261.6,0,244.7,0
		s-33.1,7.1-44.5,19.5c-11.5,12.5-17.2,29.1-15.8,46l24.4,290.9C210.4,375.1,226,389.5,244.7,389.5z"/>
	<path class="st0" d="M244.7,410.9c-21.7,0-39.3,17.6-39.3,39.3c0,21.7,17.6,39.3,39.3,39.3s39.3-17.6,39.3-39.3
		C284,428.5,266.4,410.9,244.7,410.9z"/>
</g>
</svg>
